<svg id="BI_analysis" xmlns="http://www.w3.org/2000/svg" width="48" height="48" viewBox="0 0 48 48">
  <rect id="長方形_341" data-name="長方形 341" width="48" height="48" fill="none"/>
  <g id="グループ_5" data-name="グループ 5" transform="translate(-616 130)">
    <path id="パス_366" data-name="パス 366" d="M655-122H625a3,3,0,0,0-3,3v17a3,3,0,0,0,3,3h3.776A4.494,4.494,0,0,0,633-96a4.494,4.494,0,0,0,4.224-3h5.552A4.494,4.494,0,0,0,647-96a4.494,4.494,0,0,0,4.224-3H655a3,3,0,0,0,3-3v-17A3,3,0,0,0,655-122ZM633-98a2.5,2.5,0,0,1-2.5-2.5A2.5,2.5,0,0,1,633-103a2.5,2.5,0,0,1,2.5,2.5A2.5,2.5,0,0,1,633-98Zm14,0a2.5,2.5,0,0,1-2.5-2.5A2.5,2.5,0,0,1,647-103a2.5,2.5,0,0,1,2.5,2.5A2.5,2.5,0,0,1,647-98Zm9-4a1,1,0,0,1-1,1h-3.551A4.489,4.489,0,0,0,647-105a4.489,4.489,0,0,0-4.449,4h-5.1A4.489,4.489,0,0,0,633-105a4.489,4.489,0,0,0-4.449,4H625a1,1,0,0,1-1-1v-17a1,1,0,0,1,1-1h30a1,1,0,0,1,1,1Z" fill="#1176c6"/>
    <path id="パス_367" data-name="パス 367" d="M651.987-89.349C651.374-94.154,649.89-95,647-95s-4.374.846-4.987,5.651a1.761,1.761,0,0,0,1.2,1.869,13.72,13.72,0,0,0,3.736.48,14.593,14.593,0,0,0,3.835-.486,1.747,1.747,0,0,0,1.207-1.863ZM646.945-89a12.2,12.2,0,0,1-2.917-.332C644.526-93,645.265-93,647-93s2.473,0,2.971,3.658A13.063,13.063,0,0,1,646.945-89Z" fill="#1176c6"/>
    <path id="パス_368" data-name="パス 368" d="M637.987-89.349C637.374-94.154,635.89-95,633-95s-4.374.846-4.987,5.651a1.761,1.761,0,0,0,1.2,1.869,13.72,13.72,0,0,0,3.736.48,14.593,14.593,0,0,0,3.835-.486,1.747,1.747,0,0,0,1.207-1.863ZM632.945-89a12.2,12.2,0,0,1-2.917-.332C630.526-93,631.265-93,633-93s2.473,0,2.971,3.658A13.063,13.063,0,0,1,632.945-89Z" fill="#1176c6"/>
    <path id="パス_369" data-name="パス 369" d="M633-118a6.006,6.006,0,0,0-6,6,5.985,5.985,0,0,0,2.126,4.574c.007.006.01.016.018.022s.012.006.018.011A5.97,5.97,0,0,0,633-106a6,6,0,0,0,5.617-3.91c.006-.014.016-.024.021-.038s0-.022.005-.033A5.958,5.958,0,0,0,639-112,6.006,6.006,0,0,0,633-118Zm4,6c0,.129-.026.251-.038.378L634-112.7v-3.158A4,4,0,0,1,637-112Zm-5-3.858v3.494l-2.249,2.68A3.97,3.97,0,0,1,629-112,4,4,0,0,1,632-115.858ZM633-108a3.945,3.945,0,0,1-1.714-.4l2.03-2.42,2.977,1.084A4,4,0,0,1,633-108Z" fill="#26c39c"/>
    <path id="パス_370" data-name="パス 370" d="M652-113H642a1,1,0,0,0-1,1,1,1,0,0,0,1,1h10a1,1,0,0,0,1-1A1,1,0,0,0,652-113Z" fill="#53b7f6"/>
    <path id="パス_371" data-name="パス 371" d="M644-109h-2a1,1,0,0,0-1,1,1,1,0,0,0,1,1h2a1,1,0,0,0,1-1A1,1,0,0,0,644-109Z" fill="#53b7f6"/>
    <path id="パス_372" data-name="パス 372" d="M652-109h-4a1,1,0,0,0-1,1,1,1,0,0,0,1,1h4a1,1,0,0,0,1-1A1,1,0,0,0,652-109Z" fill="#53b7f6"/>
    <path id="パス_373" data-name="パス 373" d="M642-115h6a1,1,0,0,0,1-1,1,1,0,0,0-1-1h-6a1,1,0,0,0-1,1A1,1,0,0,0,642-115Z" fill="#53b7f6"/>
    <path id="パス_374" data-name="パス 374" d="M652.71-116.71a1.033,1.033,0,0,0-.33-.21,1,1,0,0,0-1.09.21,1.155,1.155,0,0,0-.21.33,1,1,0,0,0-.08.38,1.354,1.354,0,0,0,.02.2.635.635,0,0,0,.06.18.756.756,0,0,0,.09.18l.12.15a1.052,1.052,0,0,0,.71.29,1,1,0,0,0,.38-.08,1.155,1.155,0,0,0,.33-.21l.12-.15a.756.756,0,0,0,.09-.18.635.635,0,0,0,.06-.18,1.354,1.354,0,0,0,.02-.2,1,1,0,0,0-.08-.38A1.155,1.155,0,0,0,652.71-116.71Z" fill="#53b7f6"/>
  </g>
</svg>
