<svg xmlns="http://www.w3.org/2000/svg" width="60" height="60" viewBox="0 0 60 60">
  <g id="グループ_546" data-name="グループ 546" transform="translate(-501 7102)">
    <rect id="長方形_341" data-name="長方形 341" width="60" height="60" transform="translate(501 -7102)" fill="none"/>
    <path id="パス_366" data-name="パス 366" d="M663.25-122h-37.5a3.755,3.755,0,0,0-3.75,3.75V-97a3.755,3.755,0,0,0,3.75,3.75h4.72a5.618,5.618,0,0,0,5.28,3.75,5.618,5.618,0,0,0,5.28-3.75h6.94a5.618,5.618,0,0,0,5.28,3.75,5.618,5.618,0,0,0,5.28-3.75h4.72A3.755,3.755,0,0,0,667-97v-21.25A3.755,3.755,0,0,0,663.25-122Zm-27.5,30a3.129,3.129,0,0,1-3.125-3.125,3.129,3.129,0,0,1,3.125-3.125,3.129,3.129,0,0,1,3.125,3.125A3.129,3.129,0,0,1,635.75-92Zm17.5,0a3.129,3.129,0,0,1-3.125-3.125,3.129,3.129,0,0,1,3.125-3.125,3.129,3.129,0,0,1,3.125,3.125A3.129,3.129,0,0,1,653.25-92Zm11.25-5a1.252,1.252,0,0,1-1.25,1.25h-4.439a5.612,5.612,0,0,0-5.561-5,5.612,5.612,0,0,0-5.561,5h-6.378a5.612,5.612,0,0,0-5.561-5,5.612,5.612,0,0,0-5.561,5H625.75A1.252,1.252,0,0,1,624.5-97v-21.25a1.252,1.252,0,0,1,1.25-1.25h37.5a1.252,1.252,0,0,1,1.25,1.25Z" transform="translate(-113.5 -6970)" fill="#fff"/>
    <path id="パス_367" data-name="パス 367" d="M654.484-87.936C653.717-93.942,651.862-95,648.25-95s-5.468,1.058-6.234,7.064a2.2,2.2,0,0,0,1.495,2.336,17.149,17.149,0,0,0,4.67.6,18.242,18.242,0,0,0,4.794-.607,2.184,2.184,0,0,0,1.509-2.329Zm-6.3.436a15.248,15.248,0,0,1-3.646-.415c.622-4.585,1.546-4.585,3.715-4.585s3.091,0,3.714,4.572A16.328,16.328,0,0,1,648.181-87.5Z" transform="translate(-108.5 -6963.25)" fill="#fff"/>
    <path id="パス_368" data-name="パス 368" d="M640.484-87.936C639.717-93.942,637.862-95,634.25-95s-5.468,1.058-6.234,7.064a2.2,2.2,0,0,0,1.495,2.336,17.149,17.149,0,0,0,4.67.6,18.242,18.242,0,0,0,4.794-.607,2.184,2.184,0,0,0,1.509-2.329Zm-6.3.436a15.248,15.248,0,0,1-3.646-.415c.622-4.585,1.546-4.585,3.715-4.585s3.091,0,3.714,4.572A16.328,16.328,0,0,1,634.181-87.5Z" transform="translate(-112 -6963.25)" fill="#fff"/>
    <path id="パス_369" data-name="パス 369" d="M634.5-118a7.508,7.508,0,0,0-7.5,7.5,7.482,7.482,0,0,0,2.657,5.717c.009.008.013.02.023.027s.015.008.023.014A7.462,7.462,0,0,0,634.5-103a7.5,7.5,0,0,0,7.021-4.888c.008-.017.02-.03.026-.047s0-.027.006-.041A7.447,7.447,0,0,0,642-110.5,7.508,7.508,0,0,0,634.5-118Zm5,7.5c0,.161-.032.314-.048.473l-3.7-1.348v-3.948A5,5,0,0,1,639.5-110.5Zm-6.25-4.823v4.368l-2.811,3.35a4.962,4.962,0,0,1-.939-2.9A5,5,0,0,1,633.25-115.323Zm1.25,9.823a4.932,4.932,0,0,1-2.142-.5l2.537-3.025,3.721,1.355A5,5,0,0,1,634.5-105.5Z" transform="translate(-112.25 -6969)" fill="#26c39c"/>
    <path id="パス_370" data-name="パス 370" d="M654.75-113h-12.5a1.25,1.25,0,0,0-1.25,1.25,1.25,1.25,0,0,0,1.25,1.25h12.5a1.25,1.25,0,0,0,1.25-1.25A1.25,1.25,0,0,0,654.75-113Z" transform="translate(-108.75 -6967.75)" fill="#53b7f6"/>
    <path id="パス_371" data-name="パス 371" d="M644.75-109h-2.5a1.25,1.25,0,0,0-1.25,1.25,1.25,1.25,0,0,0,1.25,1.25h2.5a1.25,1.25,0,0,0,1.25-1.25A1.25,1.25,0,0,0,644.75-109Z" transform="translate(-108.75 -6966.75)" fill="#53b7f6"/>
    <path id="パス_372" data-name="パス 372" d="M653.25-109h-5a1.25,1.25,0,0,0-1.25,1.25,1.25,1.25,0,0,0,1.25,1.25h5a1.25,1.25,0,0,0,1.25-1.25A1.25,1.25,0,0,0,653.25-109Z" transform="translate(-107.25 -6966.75)" fill="#53b7f6"/>
    <path id="パス_373" data-name="パス 373" d="M642.25-114.5h7.5a1.25,1.25,0,0,0,1.25-1.25,1.25,1.25,0,0,0-1.25-1.25h-7.5a1.25,1.25,0,0,0-1.25,1.25A1.25,1.25,0,0,0,642.25-114.5Z" transform="translate(-108.75 -6968.75)" fill="#53b7f6"/>
    <path id="パス_374" data-name="パス 374" d="M653.138-116.638a1.29,1.29,0,0,0-.413-.262,1.253,1.253,0,0,0-1.362.262,1.442,1.442,0,0,0-.262.413,1.244,1.244,0,0,0-.1.475,1.693,1.693,0,0,0,.025.25.794.794,0,0,0,.075.225.945.945,0,0,0,.112.225l.15.188a1.314,1.314,0,0,0,.888.363,1.244,1.244,0,0,0,.475-.1,1.444,1.444,0,0,0,.413-.262l.15-.187a.945.945,0,0,0,.112-.225.794.794,0,0,0,.075-.225,1.693,1.693,0,0,0,.025-.25,1.244,1.244,0,0,0-.1-.475A1.442,1.442,0,0,0,653.138-116.638Z" transform="translate(-106.25 -6968.75)" fill="#53b7f6"/>
  </g>
</svg>
