<svg viewBox="0 0 96 96" xmlns="http://www.w3.org/2000/svg" xmlns:xlink="http://www.w3.org/1999/xlink" id="Icons_WebCam_M" overflow="hidden"><g id="Icons"><path d="M56 42C56 37.5817 52.4183 34 48 34 43.5817 34 40 37.5817 40 42 40 46.4183 43.5817 50 48 50 52.4162 49.995 55.995 46.4162 56 42ZM42 42C42 38.6863 44.6863 36 48 36 51.3137 36 54 38.6863 54 42 54 45.3137 51.3137 48 48 48 44.6877 47.9967 42.0033 45.3123 42 42Z"/><path d="M68.441 75.71 54 74.105 54 69.346C69.1048 66.0323 78.6633 51.1012 75.3496 35.9964 72.0359 20.8916 57.1048 11.3331 42 14.6468 26.8952 17.9605 17.3367 32.8917 20.6504 47.9964 22.9918 58.669 31.3274 67.0046 42 69.346L42 74.105 27.559 75.705C25.5313 75.9299 23.9978 77.6449 24 79.685L24 83 72 83 72 79.685C71.9997 77.6468 70.4668 75.9347 68.441 75.71ZM22 42C22 27.6406 33.6406 16 48 16 62.3594 16 74 27.6406 74 42 74 56.3594 62.3594 68 48 68 33.6472 67.984 22.016 56.3528 22 42ZM70 81 26 81 26 79.685C26.0014 78.667 26.7672 77.8125 27.779 77.7L44 75.9 44 69.71C46.6526 70.0967 49.3474 70.0967 52 69.71L52 75.9 68.221 77.7C69.2328 77.8125 69.9986 78.667 70 79.685Z"/><circle cx="48" cy="22" r="2"/><path d="M62 42C62 34.268 55.732 28 48 28 40.268 28 34 34.268 34 42 34 49.732 40.268 56 48 56 55.7286 55.9917 61.9917 49.7286 62 42ZM36 42C36 35.3726 41.3726 30 48 30 54.6274 30 60 35.3726 60 42 60 48.6274 54.6274 54 48 54 41.3756 53.9928 36.0072 48.6244 36 42Z"/></g></svg>