<svg xmlns="http://www.w3.org/2000/svg" width="60" height="60" viewBox="0 0 60 60">
  <g id="グループ_544" data-name="グループ 544" transform="translate(-576 7102)">
    <path id="パス_359" data-name="パス 359" d="M747.484-88.936C746.717-94.942,744.862-96,741.25-96s-5.468,1.058-6.234,7.064a2.2,2.2,0,0,0,1.495,2.336,17.149,17.149,0,0,0,4.67.6,18.242,18.242,0,0,0,4.794-.607,2.184,2.184,0,0,0,1.509-2.329Zm-6.3.436a15.248,15.248,0,0,1-3.646-.415c.622-4.585,1.546-4.585,3.715-4.585s3.091,0,3.714,4.572A16.328,16.328,0,0,1,741.181-88.5Z" transform="translate(-135.25 -6963.5)" fill="#fff"/>
    <path id="パス_360" data-name="パス 360" d="M741.125-94.75a5.632,5.632,0,0,0,5.625-5.625A5.632,5.632,0,0,0,741.125-106a5.632,5.632,0,0,0-5.625,5.625A5.632,5.632,0,0,0,741.125-94.75Zm0-8.75a3.129,3.129,0,0,1,3.125,3.125,3.129,3.129,0,0,1-3.125,3.125A3.129,3.129,0,0,1,738-100.375,3.129,3.129,0,0,1,741.125-103.5Z" transform="translate(-135.125 -6966)" fill="#fff"/>
    <path id="パス_361" data-name="パス 361" d="M759.484-90.936h0C758.717-96.942,756.862-98,753.25-98s-5.468,1.058-6.234,7.064a2.2,2.2,0,0,0,1.495,2.336,17.149,17.149,0,0,0,4.67.6,18.242,18.242,0,0,0,4.794-.607A2.184,2.184,0,0,0,759.484-90.936Zm-6.3.436a15.248,15.248,0,0,1-3.646-.415c.622-4.585,1.546-4.585,3.715-4.585s3.091,0,3.714,4.572A16.328,16.328,0,0,1,753.181-90.5Z" transform="translate(-132.25 -6964)" fill="#fff"/>
    <path id="パス_362" data-name="パス 362" d="M747.5-102.375a5.632,5.632,0,0,0,5.625,5.625,5.632,5.632,0,0,0,5.625-5.625A5.632,5.632,0,0,0,753.125-108,5.632,5.632,0,0,0,747.5-102.375Zm8.75,0a3.129,3.129,0,0,1-3.125,3.125A3.129,3.129,0,0,1,750-102.375a3.129,3.129,0,0,1,3.125-3.125A3.129,3.129,0,0,1,756.25-102.375Z" transform="translate(-132.125 -6966.5)" fill="#fff"/>
    <path id="パス_363" data-name="パス 363" d="M735.484-90.936C734.717-96.942,732.862-98,729.25-98s-5.468,1.058-6.234,7.064a2.2,2.2,0,0,0,1.495,2.336,17.149,17.149,0,0,0,4.67.6,18.242,18.242,0,0,0,4.794-.607,2.184,2.184,0,0,0,1.509-2.329Zm-6.3.436a15.248,15.248,0,0,1-3.646-.415c.622-4.585,1.546-4.585,3.715-4.585s3.091,0,3.714,4.572A16.328,16.328,0,0,1,729.181-90.5Z" transform="translate(-138.25 -6964)" fill="#fff"/>
    <path id="パス_364" data-name="パス 364" d="M729.125-96.75a5.632,5.632,0,0,0,5.625-5.625A5.632,5.632,0,0,0,729.125-108a5.632,5.632,0,0,0-5.625,5.625A5.632,5.632,0,0,0,729.125-96.75Zm0-8.75a3.129,3.129,0,0,1,3.125,3.125,3.129,3.129,0,0,1-3.125,3.125A3.129,3.129,0,0,1,726-102.375,3.129,3.129,0,0,1,729.125-105.5Z" transform="translate(-138.125 -6966.5)" fill="#fff"/>
    <path id="パス_365" data-name="パス 365" d="M761-112.75v-7.5a3.755,3.755,0,0,0-3.75-3.75h-27.5a3.755,3.755,0,0,0-3.75,3.75v7.5a3.755,3.755,0,0,0,3.75,3.75H743.5v3.75a1.248,1.248,0,0,0,.677,1.111,1.259,1.259,0,0,0,.573.139,1.244,1.244,0,0,0,.726-.234L752.15-109h5.1A3.755,3.755,0,0,0,761-112.75Zm-9.25,1.25a1.239,1.239,0,0,0-.726.234L746-107.679v-2.571a1.25,1.25,0,0,0-1.25-1.25h-15a1.252,1.252,0,0,1-1.25-1.25v-7.5a1.252,1.252,0,0,1,1.25-1.25h27.5a1.252,1.252,0,0,1,1.25,1.25v7.5a1.252,1.252,0,0,1-1.25,1.25Z" transform="translate(-137.5 -6970.5)" fill="#53b7f6"/>
    <rect id="長方形_337" data-name="長方形 337" width="3.75" height="3.75" rx="1" transform="translate(604.125 -7088.875)" fill="#26c39c"/>
    <rect id="長方形_338" data-name="長方形 338" width="3.75" height="3.75" rx="1" transform="translate(611.625 -7088.875)" fill="#26c39c"/>
    <rect id="長方形_339" data-name="長方形 339" width="3.75" height="3.75" rx="1" transform="translate(596.625 -7088.875)" fill="#26c39c"/>
    <rect id="長方形_340" data-name="長方形 340" width="60" height="60" transform="translate(576 -7102)" fill="none"/>
  </g>
</svg>
