<svg id="BI_comment" xmlns="http://www.w3.org/2000/svg" width="48" height="48" viewBox="0 0 48 48">
  <g id="グループ_3" data-name="グループ 3" transform="translate(-716 130)">
    <path id="パス_359" data-name="パス 359" d="M744.987-90.349C744.374-95.154,742.89-96,740-96s-4.374.846-4.987,5.651a1.761,1.761,0,0,0,1.2,1.869,13.72,13.72,0,0,0,3.736.48,14.593,14.593,0,0,0,3.835-.486,1.747,1.747,0,0,0,1.207-1.863ZM739.945-90a12.2,12.2,0,0,1-2.917-.332C737.526-94,738.265-94,740-94s2.473,0,2.971,3.658A13.063,13.063,0,0,1,739.945-90Z" fill="#1176c6"/>
    <path id="パス_360" data-name="パス 360" d="M740-97a4.505,4.505,0,0,0,4.5-4.5A4.505,4.505,0,0,0,740-106a4.505,4.505,0,0,0-4.5,4.5A4.505,4.505,0,0,0,740-97Zm0-7a2.5,2.5,0,0,1,2.5,2.5A2.5,2.5,0,0,1,740-99a2.5,2.5,0,0,1-2.5-2.5A2.5,2.5,0,0,1,740-104Z" fill="#1176c6"/>
    <path id="パス_361" data-name="パス 361" d="M756.987-92.349h0C756.374-97.154,754.89-98,752-98s-4.374.846-4.987,5.651a1.761,1.761,0,0,0,1.2,1.869,13.72,13.72,0,0,0,3.736.48,14.593,14.593,0,0,0,3.835-.486A1.747,1.747,0,0,0,756.987-92.349ZM751.945-92a12.2,12.2,0,0,1-2.917-.332C749.526-96,750.265-96,752-96s2.473,0,2.971,3.658A13.063,13.063,0,0,1,751.945-92Z" fill="#1176c6"/>
    <path id="パス_362" data-name="パス 362" d="M747.5-103.5A4.505,4.505,0,0,0,752-99a4.505,4.505,0,0,0,4.5-4.5A4.505,4.505,0,0,0,752-108,4.505,4.505,0,0,0,747.5-103.5Zm7,0A2.5,2.5,0,0,1,752-101a2.5,2.5,0,0,1-2.5-2.5A2.5,2.5,0,0,1,752-106,2.5,2.5,0,0,1,754.5-103.5Z" fill="#1176c6"/>
    <path id="パス_363" data-name="パス 363" d="M732.987-92.349C732.374-97.154,730.89-98,728-98s-4.374.846-4.987,5.651a1.761,1.761,0,0,0,1.2,1.869,13.72,13.72,0,0,0,3.736.48,14.593,14.593,0,0,0,3.835-.486,1.747,1.747,0,0,0,1.207-1.863ZM727.945-92a12.2,12.2,0,0,1-2.917-.332C725.526-96,726.265-96,728-96s2.473,0,2.971,3.658A13.063,13.063,0,0,1,727.945-92Z" fill="#1176c6"/>
    <path id="パス_364" data-name="パス 364" d="M728-99a4.505,4.505,0,0,0,4.5-4.5A4.505,4.505,0,0,0,728-108a4.505,4.505,0,0,0-4.5,4.5A4.505,4.505,0,0,0,728-99Zm0-7a2.5,2.5,0,0,1,2.5,2.5A2.5,2.5,0,0,1,728-101a2.5,2.5,0,0,1-2.5-2.5A2.5,2.5,0,0,1,728-106Z" fill="#1176c6"/>
    <path id="パス_365" data-name="パス 365" d="M754-115v-6a3,3,0,0,0-3-3H729a3,3,0,0,0-3,3v6a3,3,0,0,0,3,3h11v3a1,1,0,0,0,.542.889A1.008,1.008,0,0,0,741-108a1,1,0,0,0,.581-.187L746.92-112H751A3,3,0,0,0,754-115Zm-7.4,1a.991.991,0,0,0-.581.187L742-110.943V-113a1,1,0,0,0-1-1H729a1,1,0,0,1-1-1v-6a1,1,0,0,1,1-1h22a1,1,0,0,1,1,1v6a1,1,0,0,1-1,1Z" fill="#53b7f6"/>
    <rect id="長方形_337" data-name="長方形 337" width="3" height="3" rx="1" transform="translate(738.5 -119.5)" fill="#26c39c"/>
    <rect id="長方形_338" data-name="長方形 338" width="3" height="3" rx="1" transform="translate(744.5 -119.5)" fill="#26c39c"/>
    <rect id="長方形_339" data-name="長方形 339" width="3" height="3" rx="1" transform="translate(732.5 -119.5)" fill="#26c39c"/>
  </g>
  <rect id="長方形_340" data-name="長方形 340" width="48" height="48" fill="none"/>
</svg>
