<svg id="BI_dashboard" xmlns="http://www.w3.org/2000/svg" width="48" height="48" viewBox="0 0 48 48">
  <g id="グループ_1" data-name="グループ 1" transform="translate(-416 130)">
    <path id="パス_348" data-name="パス 348" d="M455-122H425a3,3,0,0,0-3,3v20a3,3,0,0,0,3,3h11.219l-1,4H430a1,1,0,0,0-1,1,1,1,0,0,0,1,1h20a1,1,0,0,0,1-1,1,1,0,0,0-1-1h-5.219l-1-4H455a3,3,0,0,0,3-3v-20A3,3,0,0,0,455-122ZM442.719-92h-5.438l1-4h3.438ZM456-99a1,1,0,0,1-1,1H425a1,1,0,0,1-1-1v-20a1,1,0,0,1,1-1h30a1,1,0,0,1,1,1Z" fill="#1176c6"/>
    <path id="パス_349" data-name="パス 349" d="M451.966-115.741A.977.977,0,0,0,452-116v0a1,1,0,0,0-.065-.333c-.01-.027-.02-.052-.032-.079a.989.989,0,0,0-.2-.294,1,1,0,0,0-.293-.195c-.027-.012-.053-.023-.082-.033A.984.984,0,0,0,451-117h-.008a1.032,1.032,0,0,0-.252.033l-3.346.9a1,1,0,0,0-.707,1.224.981.981,0,0,0,1.023.72l-4,4-9.428-2.829a1,1,0,0,0-.994.251l-5,5a1,1,0,0,0,0,1.414A1,1,0,0,0,429-106a1,1,0,0,0,.707-.293l4.578-4.578,9.428,2.829a1,1,0,0,0,.994-.251l4.418-4.418a.985.985,0,0,0,.72,1.023,1.015,1.015,0,0,0,.259.035,1,1,0,0,0,.965-.742Z" fill="#26c39c"/>
    <path id="パス_350" data-name="パス 350" d="M428-104a1,1,0,0,0-1,1v2a1,1,0,0,0,1,1,1,1,0,0,0,1-1v-2A1,1,0,0,0,428-104Z" fill="#53b7f6"/>
    <path id="パス_351" data-name="パス 351" d="M428-116h2a1,1,0,0,0,1-1,1,1,0,0,0-1-1h-2a1,1,0,0,0-1,1A1,1,0,0,0,428-116Z" fill="#53b7f6"/>
    <circle id="楕円形_83" data-name="楕円形 83" cx="1" cy="1" r="1" transform="translate(433 -118)" fill="#53b7f6"/>
    <path id="パス_352" data-name="パス 352" d="M438-116h4a1,1,0,0,0,1-1,1,1,0,0,0-1-1h-4a1,1,0,0,0-1,1A1,1,0,0,0,438-116Z" fill="#53b7f6"/>
    <path id="パス_353" data-name="パス 353" d="M432-103a1,1,0,0,0-1,1v1a1,1,0,0,0,1,1,1,1,0,0,0,1-1v-1A1,1,0,0,0,432-103Z" fill="#53b7f6"/>
    <path id="パス_354" data-name="パス 354" d="M436-106a1,1,0,0,0-1,1v4a1,1,0,0,0,1,1,1,1,0,0,0,1-1v-4A1,1,0,0,0,436-106Z" fill="#53b7f6"/>
    <path id="パス_355" data-name="パス 355" d="M440-105a1,1,0,0,0-1,1v3a1,1,0,0,0,1,1,1,1,0,0,0,1-1v-3A1,1,0,0,0,440-105Z" fill="#53b7f6"/>
    <path id="パス_356" data-name="パス 356" d="M444-104a1,1,0,0,0-1,1v2a1,1,0,0,0,1,1,1,1,0,0,0,1-1v-2A1,1,0,0,0,444-104Z" fill="#53b7f6"/>
    <path id="パス_357" data-name="パス 357" d="M448-107a1,1,0,0,0-1,1v5a1,1,0,0,0,1,1,1,1,0,0,0,1-1v-5A1,1,0,0,0,448-107Z" fill="#53b7f6"/>
    <path id="パス_358" data-name="パス 358" d="M452-109a1,1,0,0,0-1,1v7a1,1,0,0,0,1,1,1,1,0,0,0,1-1v-7A1,1,0,0,0,452-109Z" fill="#53b7f6"/>
  </g>
  <rect id="長方形_336" data-name="長方形 336" width="48" height="48" fill="none"/>
</svg>
