<svg id="BI_dataInput" xmlns="http://www.w3.org/2000/svg" width="48" height="48" viewBox="0 0 48 48">
  <rect id="長方形_342" data-name="長方形 342" width="48" height="48" fill="none"/>
  <g id="グループ_7" data-name="グループ 7" transform="translate(-816 130)">
    <path id="パス_375" data-name="パス 375" d="M857.394-113.072l-1.171-1.672h0a1.467,1.467,0,0,0-.954-.607,1.471,1.471,0,0,0-.664.039l-.68-.972a5.01,5.01,0,0,0,.467-6.307,5.009,5.009,0,0,0-6.964-1.228,5.006,5.006,0,0,0-1.229,6.964,5,5,0,0,0,4.1,2.13,4.977,4.977,0,0,0,1.976-.421l.693.989a1.469,1.469,0,0,0-.269.6,1.473,1.473,0,0,0,.244,1.107l1.17,1.671a1.48,1.48,0,0,0,1.215.631,1.476,1.476,0,0,0,.848-.268l.851-.6A1.483,1.483,0,0,0,857.394-113.072ZM847.837-118a3.006,3.006,0,0,1,.736-4.179,2.983,2.983,0,0,1,1.717-.541,3,3,0,0,1,2.462,1.278,3,3,0,0,1-.736,4.178A3,3,0,0,1,847.837-118Z" fill="#1176c6"/>
    <path id="パス_376" data-name="パス 376" d="M828-99a6.006,6.006,0,0,0-6,6,5.985,5.985,0,0,0,2.126,4.574c.007.006.01.016.018.022s.012.006.018.011A5.97,5.97,0,0,0,828-87a6.005,6.005,0,0,0,5.618-3.912c.005-.013.015-.023.02-.036s0-.021,0-.031A5.946,5.946,0,0,0,834-93,6.006,6.006,0,0,0,828-99Zm4,6c0,.129-.026.251-.038.378L829-93.7v-3.158A4,4,0,0,1,832-93Zm-5-3.858v3.5l-2.249,2.68A3.975,3.975,0,0,1,824-93,4,4,0,0,1,827-96.858ZM828-89a3.968,3.968,0,0,1-1.715-.4l2.03-2.42,2.978,1.084A4,4,0,0,1,828-89Z" fill="#1176c6"/>
    <path id="パス_377" data-name="パス 377" d="M856-94H846a1,1,0,0,0-1,1,1,1,0,0,0,1,1h10a1,1,0,0,0,1-1A1,1,0,0,0,856-94Z" fill="#53b7f6"/>
    <path id="パス_378" data-name="パス 378" d="M848-90h-2a1,1,0,0,0-1,1,1,1,0,0,0,1,1h2a1,1,0,0,0,1-1A1,1,0,0,0,848-90Z" fill="#53b7f6"/>
    <path id="パス_379" data-name="パス 379" d="M856-90h-4a1,1,0,0,0-1,1,1,1,0,0,0,1,1h4a1,1,0,0,0,1-1A1,1,0,0,0,856-90Z" fill="#53b7f6"/>
    <path id="パス_380" data-name="パス 380" d="M845-97a1,1,0,0,0,1,1h6a1,1,0,0,0,1-1,1,1,0,0,0-1-1h-6A1,1,0,0,0,845-97Z" fill="#53b7f6"/>
    <path id="パス_381" data-name="パス 381" d="M855.62-97.92a1.033,1.033,0,0,0-.33.21A1.047,1.047,0,0,0,855-97a1,1,0,0,0,.08.38,1.155,1.155,0,0,0,.21.33,1.033,1.033,0,0,0,.33.21A1,1,0,0,0,856-96a1.052,1.052,0,0,0,.71-.29A1.052,1.052,0,0,0,857-97a1.052,1.052,0,0,0-.29-.71A1.022,1.022,0,0,0,855.62-97.92Z" fill="#53b7f6"/>
    <path id="パス_382" data-name="パス 382" d="M825-113a1,1,0,0,0,.554-.168,1,1,0,0,0,.277-1.387L823.2-118.5l2.63-3.945a1,1,0,0,0-.277-1.387,1,1,0,0,0-1.387.277l-3,4.5a1,1,0,0,0,0,1.11l3,4.5A1,1,0,0,0,825-113Z" fill="#53b7f6"/>
    <path id="パス_383" data-name="パス 383" d="M832.445-113.168A1,1,0,0,0,833-113a1,1,0,0,0,.833-.445l3-4.5a1,1,0,0,0,0-1.11l-3-4.5a1,1,0,0,0-1.387-.277,1,1,0,0,0-.277,1.387l2.63,3.945-2.63,3.945A1,1,0,0,0,832.445-113.168Z" fill="#53b7f6"/>
    <path id="パス_384" data-name="パス 384" d="M827.726-114.039A.962.962,0,0,0,828-114a1,1,0,0,0,.961-.725l2-7a1,1,0,0,0-.688-1.236,1,1,0,0,0-1.236.686l-2,7A1,1,0,0,0,827.726-114.039Z" fill="#53b7f6"/>
    <path id="パス_385" data-name="パス 385" d="M845.756-100.97l1.478-2.56a1,1,0,0,0-.225-1.268l-1.025-.855c.01-.112.016-.227.016-.347s-.006-.235-.016-.347l1.025-.855a1,1,0,0,0,.225-1.268l-1.478-2.56a1,1,0,0,0-1.211-.439l-1.27.466a5.619,5.619,0,0,0-.581-.342l-.23-1.326a1,1,0,0,0-.985-.829h-2.958a1,1,0,0,0-.985.829l-.23,1.326a5.619,5.619,0,0,0-.581.342l-1.27-.466a1,1,0,0,0-1.211.439l-1.478,2.56a1,1,0,0,0,.225,1.268l1.025.855c-.01.112-.016.227-.016.347s.006.235.016.347l-1.025.855a1,1,0,0,0-.225,1.268l1.478,2.56a1,1,0,0,0,1.211.439l1.27-.466a5.619,5.619,0,0,0,.581.342l.23,1.326a1,1,0,0,0,.985.829h2.958a1,1,0,0,0,.985-.829l.23-1.326a5.619,5.619,0,0,0,.581-.342l1.27.466A1,1,0,0,0,845.756-100.97Zm-1.821-5.638A3.927,3.927,0,0,1,844-106a3.927,3.927,0,0,1-.065.608,1,1,0,0,0,.347.922l.8.668-.638,1.1-.982-.361a1,1,0,0,0-.972.161,3.977,3.977,0,0,1-1.051.618,1,1,0,0,0-.625.761l-.176,1.019h-1.276l-.176-1.019a1,1,0,0,0-.625-.761,3.977,3.977,0,0,1-1.051-.618,1,1,0,0,0-.972-.161l-.982.361-.638-1.1.8-.668a1,1,0,0,0,.347-.922A3.927,3.927,0,0,1,836-106a3.927,3.927,0,0,1,.065-.608,1,1,0,0,0-.347-.922l-.8-.668.638-1.1.982.361a1,1,0,0,0,.972-.161,3.977,3.977,0,0,1,1.051-.618,1,1,0,0,0,.625-.761l.176-1.019h1.276l.176,1.019a1,1,0,0,0,.625.761,3.977,3.977,0,0,1,1.051.618,1,1,0,0,0,.972.161l.982-.361.638,1.1-.8.668A1,1,0,0,0,843.935-106.608Z" fill="#26c39c"/>
    <path id="パス_386" data-name="パス 386" d="M840-109a3,3,0,0,0-3,3,3,3,0,0,0,3,3,3,3,0,0,0,3-3A3,3,0,0,0,840-109Zm0,4a1,1,0,0,1-1-1,1,1,0,0,1,1-1,1,1,0,0,1,1,1A1,1,0,0,1,840-105Z" fill="#26c39c"/>
  </g>
</svg>
