<svg xmlns="http://www.w3.org/2000/svg" width="60" height="60" viewBox="0 0 60 60">
  <g id="グループ_542" data-name="グループ 542" transform="translate(-651 7102)">
    <rect id="長方形_3405" data-name="長方形 3405" width="60" height="60" transform="translate(651 -7102)" fill="none"/>
    <path id="パス_451" data-name="パス 451" d="M1160.875-121h-3.125a1.25,1.25,0,0,0-1.25,1.25,1.25,1.25,0,0,0,1.25,1.25h3.125a.626.626,0,0,1,.625.625v26.25a.614.614,0,0,1-.181.438.429.429,0,0,1-.439.18l-14.38-.063a3.72,3.72,0,0,0-2.5.975,3.73,3.73,0,0,0-2.505-.975l-14.375.063h0a.611.611,0,0,1-.436-.18.614.614,0,0,1-.181-.437v-26.25a.626.626,0,0,1,.625-.625H1141.5a1.251,1.251,0,0,1,1.25,1.25A1.25,1.25,0,0,0,1144-116a1.25,1.25,0,0,0,1.25-1.25,1.251,1.251,0,0,1,1.25-1.25h3.75a1.25,1.25,0,0,0,1.25-1.25,1.25,1.25,0,0,0-1.25-1.25h-3.75a3.726,3.726,0,0,0-2.5.975,3.726,3.726,0,0,0-2.5-.975h-14.375a3.129,3.129,0,0,0-3.125,3.125v26.25a3.1,3.1,0,0,0,.916,2.209,3.116,3.116,0,0,0,2.214.909l14.37-.063a1.251,1.251,0,0,1,1.25,1.25,1.25,1.25,0,0,0,1.25,1.25,1.25,1.25,0,0,0,1.25-1.25,1.25,1.25,0,0,1,1.245-1.25l14.375.063h.014a3.1,3.1,0,0,0,2.2-.909,3.1,3.1,0,0,0,.916-2.209v-26.25A3.129,3.129,0,0,0,1160.875-121Z" transform="translate(-463 -6969.75)" fill="#fff"/>
    <path id="パス_452" data-name="パス 452" d="M1145-82c-3.566,0-5.125-1.473-5.779-2.5H1123.75a3.754,3.754,0,0,1-3.75-3.75v-27.5a1.25,1.25,0,0,1,1.25-1.25,1.25,1.25,0,0,1,1.25,1.25v27.5a1.251,1.251,0,0,0,1.25,1.25H1140a1.25,1.25,0,0,1,1.219.971c.009.022.514,1.529,3.781,1.529s3.772-1.506,3.791-1.57A1.315,1.315,0,0,1,1150-87h16.25a1.251,1.251,0,0,0,1.25-1.25v-27.5a1.25,1.25,0,0,1,1.25-1.25,1.25,1.25,0,0,1,1.25,1.25v27.5a3.754,3.754,0,0,1-3.75,3.75h-15.471C1150.125-83.473,1148.566-82,1145-82Z" transform="translate(-464 -6968.75)" fill="#53b7f6"/>
    <path id="パス_453" data-name="パス 453" d="M1139-106h-8.75a1.25,1.25,0,0,1-1.25-1.25v-7.5a1.25,1.25,0,0,1,1.25-1.25H1139a1.25,1.25,0,0,1,1.25,1.25v7.5A1.25,1.25,0,0,1,1139-106Zm-7.5-2.5h6.25v-5h-6.25Z" transform="translate(-461.75 -6968.5)" fill="#fff"/>
    <path id="パス_454" data-name="パス 454" d="M1152.5-99.5h-8.75a1.25,1.25,0,0,1-1.25-1.25,1.25,1.25,0,0,1,1.25-1.25h8.75a1.25,1.25,0,0,1,1.25,1.25A1.25,1.25,0,0,1,1152.5-99.5Z" transform="translate(-458.375 -6965)" fill="#53b7f6"/>
    <path id="パス_455" data-name="パス 455" d="M1152.75-108a1.246,1.246,0,0,1-.694-.21L1149-110.247l-3.056,2.038a1.25,1.25,0,0,1-1.284.063,1.251,1.251,0,0,1-.66-1.1v-12.5a1.25,1.25,0,0,1,1.25-1.25h7.5a1.25,1.25,0,0,1,1.25,1.25v12.5a1.251,1.251,0,0,1-.66,1.1A1.252,1.252,0,0,1,1152.75-108Zm-3.75-5a1.252,1.252,0,0,1,.694.21l1.806,1.2V-120.5h-5v8.914l1.806-1.2A1.252,1.252,0,0,1,1149-113Z" transform="translate(-458 -6970.25)" fill="#26c39c"/>
    <path id="パス_461" data-name="パス 461" d="M1134-99.5h-3.75a1.25,1.25,0,0,1-1.25-1.25,1.25,1.25,0,0,1,1.25-1.25H1134a1.25,1.25,0,0,1,1.25,1.25A1.25,1.25,0,0,1,1134-99.5Z" transform="translate(-461.75 -6965)" fill="#53b7f6"/>
    <path id="パス_462" data-name="パス 462" d="M1137.5-99.5h-1.25a1.25,1.25,0,0,1-1.25-1.25,1.25,1.25,0,0,1,1.25-1.25h1.25a1.25,1.25,0,0,1,1.25,1.25A1.25,1.25,0,0,1,1137.5-99.5Z" transform="translate(-460.25 -6965)" fill="#53b7f6"/>
  </g>
</svg>
