<svg id="BI_dictionary" xmlns="http://www.w3.org/2000/svg" width="48" height="48" viewBox="0 0 48 48">
  <rect id="長方形_3405" data-name="長方形 3405" width="48" height="48" fill="none"/>
  <path id="パス_451" data-name="パス 451" d="M1153.5-121H1151a1,1,0,0,0-1,1,1,1,0,0,0,1,1h2.5a.5.5,0,0,1,.5.5v21a.492.492,0,0,1-.145.35.343.343,0,0,1-.351.144l-11.5-.05a2.976,2.976,0,0,0-2,.78,2.984,2.984,0,0,0-2-.78l-11.5.05h0a.489.489,0,0,1-.349-.144.492.492,0,0,1-.145-.35v-21a.5.5,0,0,1,.5-.5H1138a1,1,0,0,1,1,1,1,1,0,0,0,1,1,1,1,0,0,0,1-1,1,1,0,0,1,1-1h3a1,1,0,0,0,1-1,1,1,0,0,0-1-1h-3a2.981,2.981,0,0,0-2,.78,2.981,2.981,0,0,0-2-.78h-11.5a2.5,2.5,0,0,0-2.5,2.5v21a2.481,2.481,0,0,0,.733,1.767,2.492,2.492,0,0,0,1.771.727l11.5-.05a1,1,0,0,1,1,1,1,1,0,0,0,1,1,1,1,0,0,0,1-1,1,1,0,0,1,1-1l11.5.05h.011a2.478,2.478,0,0,0,1.76-.727A2.481,2.481,0,0,0,1156-97.5v-21A2.5,2.5,0,0,0,1153.5-121Z" transform="translate(-1116 130)" fill="#1176c6"/>
  <path id="パス_452" data-name="パス 452" d="M1140-89c-2.853,0-4.1-1.178-4.623-2H1123a3,3,0,0,1-3-3v-22a1,1,0,0,1,1-1,1,1,0,0,1,1,1v22a1,1,0,0,0,1,1h13a1,1,0,0,1,.975.777c.007.018.411,1.223,3.025,1.223s3.018-1.205,3.033-1.256A1.052,1.052,0,0,1,1144-93h13a1,1,0,0,0,1-1v-22a1,1,0,0,1,1-1,1,1,0,0,1,1,1v22a3,3,0,0,1-3,3h-12.377C1144.1-90.178,1142.853-89,1140-89Z" transform="translate(-1116 130)" fill="#53b7f6"/>
  <g id="グループ_267" data-name="グループ 267" transform="translate(-1116 130)">
    <path id="パス_453" data-name="パス 453" d="M1137-108h-7a1,1,0,0,1-1-1v-6a1,1,0,0,1,1-1h7a1,1,0,0,1,1,1v6A1,1,0,0,1,1137-108Zm-6-2h5v-4h-5Z" fill="#1176c6"/>
  </g>
  <g id="グループ_268" data-name="グループ 268" transform="translate(-1116 130)">
    <path id="パス_454" data-name="パス 454" d="M1150.5-100h-7a1,1,0,0,1-1-1,1,1,0,0,1,1-1h7a1,1,0,0,1,1,1A1,1,0,0,1,1150.5-100Z" fill="#53b7f6"/>
  </g>
  <path id="パス_455" data-name="パス 455" d="M1151-111a1,1,0,0,1-.555-.168L1148-112.8l-2.445,1.63a1,1,0,0,1-1.027.05A1,1,0,0,1,1144-112v-10a1,1,0,0,1,1-1h6a1,1,0,0,1,1,1v10a1,1,0,0,1-.528.882A1,1,0,0,1,1151-111Zm-3-4a1,1,0,0,1,.555.168l1.445.963V-121h-4v7.131l1.445-.963A1,1,0,0,1,1148-115Z" transform="translate(-1116 130)" fill="#26c39c"/>
  <g id="グループ_269" data-name="グループ 269" transform="translate(-1116 130)">
    <path id="パス_461" data-name="パス 461" d="M1133-100h-3a1,1,0,0,1-1-1,1,1,0,0,1,1-1h3a1,1,0,0,1,1,1A1,1,0,0,1,1133-100Z" fill="#53b7f6"/>
  </g>
  <g id="グループ_270" data-name="グループ 270" transform="translate(-1116 130)">
    <path id="パス_462" data-name="パス 462" d="M1137-100h-1a1,1,0,0,1-1-1,1,1,0,0,1,1-1h1a1,1,0,0,1,1,1A1,1,0,0,1,1137-100Z" fill="#53b7f6"/>
  </g>
</svg>
