<svg id="BI_format" xmlns="http://www.w3.org/2000/svg" width="48" height="48" viewBox="0 0 48 48">
  <rect id="長方形_462" data-name="長方形 462" width="48" height="48" fill="none"/>
  <g id="グループ_87" data-name="グループ 87" transform="translate(-916 130)">
    <path id="パス_426" data-name="パス 426" d="M953-120H931a1,1,0,0,0-1,1v22a1.009,1.009,0,0,0,.077.382,1,1,0,0,0,.217.326l8,8a.99.99,0,0,0,.326.217A1.01,1.01,0,0,0,939-88h14a1,1,0,0,0,1-1v-30A1,1,0,0,0,953-120ZM938-91.414,933.414-96H938ZM952-90H940v-7a1,1,0,0,0-1-1h-7v-20h20Z" fill="#fff"/>
    <path id="パス_427" data-name="パス 427" d="M930-94h-2v-28h22a1,1,0,0,0,1-1,1,1,0,0,0-1-1H927a1,1,0,0,0-1,1v30a1,1,0,0,0,1,1h3a1,1,0,0,0,1-1A1,1,0,0,0,930-94Z" fill="#53b7f6"/>
    <path id="パス_428" data-name="パス 428" d="M943-112h4a1,1,0,0,0,1-1,1,1,0,0,0-1-1h-4a1,1,0,0,0-1,1A1,1,0,0,0,943-112Z" fill="#26c39c"/>
    <path id="パス_429" data-name="パス 429" d="M937-108h10a1,1,0,0,0,1-1,1,1,0,0,0-1-1H937a1,1,0,0,0-1,1A1,1,0,0,0,937-108Z" fill="#26c39c"/>
    <path id="パス_430" data-name="パス 430" d="M937-112h2a1,1,0,0,0,1-1,1,1,0,0,0-1-1h-2a1,1,0,0,0-1,1A1,1,0,0,0,937-112Z" fill="#26c39c"/>
    <path id="パス_431" data-name="パス 431" d="M937-104h4a1,1,0,0,0,1-1,1,1,0,0,0-1-1h-4a1,1,0,0,0-1,1A1,1,0,0,0,937-104Z" fill="#26c39c"/>
    <path id="パス_432" data-name="パス 432" d="M947-102h-3.5a1,1,0,0,0-1,1,1,1,0,0,0,1,1H947a1,1,0,0,0,1-1A1,1,0,0,0,947-102Z" fill="#26c39c"/>
    <path id="パス_433" data-name="パス 433" d="M947-106h-2a1,1,0,0,0-1,1,1,1,0,0,0,1,1h2a1,1,0,0,0,1-1A1,1,0,0,0,947-106Z" fill="#26c39c"/>
  </g>
</svg>
