<svg xmlns="http://www.w3.org/2000/svg" width="60" height="60" viewBox="0 0 60 60">
  <g id="グループ_584" data-name="グループ 584" transform="translate(-382 -5039)">
    <path id="パス_1383" data-name="パス 1383" d="M1338.25-161a1.25,1.25,0,0,0-1.25,1.25v17.5a1.25,1.25,0,0,0,1.25,1.25,1.25,1.25,0,0,0,1.25-1.25v-17.5A1.25,1.25,0,0,0,1338.25-161Z" transform="translate(-928.75 5223.754)" fill="#53b7f6"/>
    <path id="パス_1384" data-name="パス 1384" d="M1342.25-161a1.25,1.25,0,0,0-1.25,1.25v7.816a1.25,1.25,0,0,0,1.25,1.25,1.25,1.25,0,0,0,1.25-1.25v-7.816A1.25,1.25,0,0,0,1342.25-161Z" transform="translate(-927.75 5223.754)" fill="#53b7f6"/>
    <path id="パス_1385" data-name="パス 1385" d="M1329.25-161a1.25,1.25,0,0,0-1.25,1.25v17.5a1.25,1.25,0,0,0,1.25,1.25,1.25,1.25,0,0,0,1.25-1.25v-17.5A1.25,1.25,0,0,0,1329.25-161Z" transform="translate(-931 5223.754)" fill="#53b7f6"/>
    <path id="パス_1386" data-name="パス 1386" d="M1333.25-161a1.25,1.25,0,0,0-1.25,1.25v17.5a1.25,1.25,0,0,0,1.25,1.25,1.25,1.25,0,0,0,1.25-1.25v-17.5A1.25,1.25,0,0,0,1333.25-161Z" transform="translate(-930 5223.754)" fill="#53b7f6"/>
    <path id="パス_1387" data-name="パス 1387" d="M1347.25-161a1.25,1.25,0,0,0-1.25,1.25v6.339a1.249,1.249,0,0,0,1.25,1.25,1.249,1.249,0,0,0,1.25-1.25v-6.339A1.25,1.25,0,0,0,1347.25-161Z" transform="translate(-926.5 5223.754)" fill="#53b7f6"/>
    <path id="パス_1388" data-name="パス 1388" d="M1351.25-161a1.25,1.25,0,0,0-1.25,1.25v8.878a1.25,1.25,0,0,0,1.25,1.25,1.25,1.25,0,0,0,1.25-1.25v-8.878A1.25,1.25,0,0,0,1351.25-161Z" transform="translate(-925.5 5223.754)" fill="#53b7f6"/>
    <rect id="長方形_7567" data-name="長方形 7567" width="60" height="60" transform="translate(382 5039)" fill="none"/>
    <path id="パス_1389" data-name="パス 1389" d="M1363.339-162.857l-18.75-10a1.251,1.251,0,0,0-1.177,0l-18.75,10a1.251,1.251,0,0,0-.624,1.406,1.251,1.251,0,0,0,1.212.948h1.249v3.749a1.25,1.25,0,0,0,1.25,1.25h32.5a1.25,1.25,0,0,0,1.25-1.25V-160.5h1.249a1.251,1.251,0,0,0,1.212-.948A1.251,1.251,0,0,0,1363.339-162.857ZM1344-170.337,1357.75-163h-27.5ZM1359-158h-30v-2.5h30Z" transform="translate(-932 5220.754)" fill="#007cc2"/>
    <path id="パス_1390" data-name="パス 1390" d="M1367.144-136.955l-3.334-2.8a2.2,2.2,0,0,0-2.865.044l-1.049-.88a10.01,10.01,0,0,0-1.97-13.075,9.949,9.949,0,0,0-7.3-2.3,9.93,9.93,0,0,0-6.789,3.534,9.966,9.966,0,0,0-2.246,7.679h-13.844a1.25,1.25,0,0,0-1.25,1.25v3.75h-1.249a1.249,1.249,0,0,0-1.25,1.25,1.25,1.25,0,0,0,1.25,1.25h21.415a9.9,9.9,0,0,0,4.816,1.25q.442,0,.889-.039a9.922,9.922,0,0,0,5.92-2.633l1.049.88a2.2,2.2,0,0,0,.454,2.829l3.334,2.8a2.17,2.17,0,0,0,1.409.515c.065,0,.13,0,.2-.009a2.175,2.175,0,0,0,1.491-.775l1.191-1.42a2.181,2.181,0,0,0,.506-1.605A2.183,2.183,0,0,0,1367.144-136.955Zm-38.145-5.3h13.236a9.912,9.912,0,0,0,1.46,2.5H1329Zm23.152,3.721a7.478,7.478,0,0,1-5.474-1.728,7.508,7.508,0,0,1-.925-10.566h0a7.453,7.453,0,0,1,5.091-2.65c.223-.02.445-.029.666-.029a7.44,7.44,0,0,1,4.807,1.755,7.509,7.509,0,0,1,.928,10.565h0A7.455,7.455,0,0,1,1352.151-138.532Zm12.351,4.255-2.872-2.41.8-.957,2.873,2.41Z" transform="translate(-932 5225.004)" fill="#007cc2"/>
    <path id="パス_1391" data-name="パス 1391" d="M1346.375-142.25a1.877,1.877,0,0,1-1.875-1.875,1.877,1.877,0,0,1,1.875-1.875,1.877,1.877,0,0,1,1.875,1.875A1.877,1.877,0,0,1,1346.375-142.25Z" transform="translate(-926.875 5227.505)" fill="#26c39c"/>
    <path id="パス_1392" data-name="パス 1392" d="M1346.361-145.271c-.272,0-1.173-.1-1.316-1.386l-.479-4.3a1.878,1.878,0,0,1,.458-1.457,1.86,1.86,0,0,1,2.675,0,1.876,1.876,0,0,1,.458,1.456h0l-.479,4.3C1347.534-145.371,1346.634-145.271,1346.361-145.271Zm-.691-5.957Z" transform="translate(-926.861 5225.76)" fill="#26c39c"/>
  </g>
</svg>
