<svg xmlns="http://www.w3.org/2000/svg" width="60" height="60" viewBox="0 0 60 60">
  <g id="グループ_540" data-name="グループ 540" transform="translate(-726 7102)">
    <rect id="長方形_3406" data-name="長方形 3406" width="60" height="60" transform="translate(726 -7102)" fill="none"/>
    <path id="パス_456" data-name="パス 456" d="M1264-118.751a1.248,1.248,0,0,0-.081-.416c-.013-.034-.025-.065-.04-.1a1.233,1.233,0,0,0-.245-.368,1.207,1.207,0,0,0-.367-.244c-.033-.015-.064-.029-.1-.041a1.243,1.243,0,0,0-.416-.081h-.01a1.307,1.307,0,0,0-.315.041l-4.181,1.121a1.25,1.25,0,0,0-.885,1.53,1.234,1.234,0,0,0,1.277.9l-4.755,4.755-4.133-3.1a1.248,1.248,0,0,0-1.634.116l-8.75,8.75a1.249,1.249,0,0,0,0,1.768,1.247,1.247,0,0,0,.884.366,1.247,1.247,0,0,0,.884-.366l7.984-7.984,4.133,3.1a1.251,1.251,0,0,0,1.634-.116l5.522-5.523a1.232,1.232,0,0,0,.9,1.279,1.271,1.271,0,0,0,.324.044,1.249,1.249,0,0,0,1.206-.927l1.121-4.182a1.275,1.275,0,0,0,.042-.32Z" transform="translate(-484.25 -6969.5)" fill="#26c39c"/>
    <rect id="長方形_3407" data-name="長方形 3407" width="2.5" height="13.75" rx="0.375" transform="translate(739.75 -7067)" fill="#53b7f6"/>
    <rect id="長方形_3408" data-name="長方形 3408" width="5.625" height="2.5" rx="0.375" transform="translate(747.25 -7058.875) rotate(90)" fill="#53b7f6"/>
    <rect id="長方形_3409" data-name="長方形 3409" width="13.75" height="2.5" rx="0.375" transform="translate(757.25 -7067) rotate(90)" fill="#53b7f6"/>
    <rect id="長方形_3410" data-name="長方形 3410" width="10.625" height="2.5" rx="0.375" transform="translate(752.25 -7063.875) rotate(90)" fill="#53b7f6"/>
    <rect id="長方形_3411" data-name="長方形 3411" width="8.75" height="2.5" rx="0.375" transform="translate(737.25 -7062) rotate(90)" fill="#53b7f6"/>
    <rect id="長方形_3412" data-name="長方形 3412" width="2.5" height="20" rx="0.375" transform="translate(764.75 -7073.25)" fill="#53b7f6"/>
    <rect id="長方形_3413" data-name="長方形 3413" width="13.125" height="2.5" rx="0.375" transform="translate(772.25 -7066.375) rotate(90)" fill="#53b7f6"/>
    <rect id="長方形_3414" data-name="長方形 3414" width="16.875" height="2.5" rx="0.375" transform="translate(777.25 -7070.125) rotate(90)" fill="#53b7f6"/>
    <rect id="長方形_3415" data-name="長方形 3415" width="11.25" height="2.5" rx="0.375" transform="translate(762.25 -7064.5) rotate(90)" fill="#53b7f6"/>
    <path id="パス_457" data-name="パス 457" d="M1232-101a10.012,10.012,0,0,1-10-10,10.012,10.012,0,0,1,10-10,10.012,10.012,0,0,1,10,10A10.012,10.012,0,0,1,1232-101Zm0-17.5a7.508,7.508,0,0,0-7.5,7.5,7.508,7.508,0,0,0,7.5,7.5,7.508,7.508,0,0,0,7.5-7.5A7.508,7.508,0,0,0,1232-118.5Z" transform="translate(-488.5 -6969.75)" fill="#fff"/>
    <path id="パス_458" data-name="パス 458" d="M1230.25-109.75A1.25,1.25,0,0,1,1229-111v-8.75a1.25,1.25,0,0,1,1.25-1.25,1.25,1.25,0,0,1,1.25,1.25V-111A1.25,1.25,0,0,1,1230.25-109.75Z" transform="translate(-486.75 -6969.75)" fill="#fff"/>
    <path id="パス_459" data-name="パス 459" d="M1238.473-108.506a1.256,1.256,0,0,1-.428-.076l-8.222-2.992a1.249,1.249,0,0,1-.746-1.6,1.251,1.251,0,0,1,1.6-.747l8.223,2.993a1.25,1.25,0,0,1,.747,1.6A1.253,1.253,0,0,1,1238.473-108.506Z" transform="translate(-486.75 -6968)" fill="#fff"/>
    <path id="パス_460" data-name="パス 460" d="M1225.749-104.8a1.239,1.239,0,0,1-.8-.292,1.251,1.251,0,0,1-.154-1.761l5.625-6.7a1.251,1.251,0,0,1,1.761-.154,1.252,1.252,0,0,1,.154,1.761l-5.625,6.7A1.246,1.246,0,0,1,1225.749-104.8Z" transform="translate(-487.875 -6968)" fill="#fff"/>
  </g>
</svg>
