<svg id="BI_graph" xmlns="http://www.w3.org/2000/svg" width="48" height="48" viewBox="0 0 48 48">
  <rect id="長方形_3406" data-name="長方形 3406" width="48" height="48" fill="none"/>
  <path id="パス_456" data-name="パス 456" d="M1259-119a1,1,0,0,0-.065-.333c-.01-.027-.02-.052-.032-.079a.989.989,0,0,0-.2-.294.967.967,0,0,0-.294-.195c-.026-.012-.051-.023-.079-.033A1,1,0,0,0,1258-120h-.008a1.045,1.045,0,0,0-.252.033l-3.345.9a1,1,0,0,0-.708,1.224.987.987,0,0,0,1.022.721l-3.8,3.8-3.306-2.48a1,1,0,0,0-1.307.093l-7,7a1,1,0,0,0,0,1.414A1,1,0,0,0,1240-107a1,1,0,0,0,.707-.293l6.387-6.387,3.306,2.48a1,1,0,0,0,1.307-.093l4.418-4.418a.985.985,0,0,0,.72,1.023,1.015,1.015,0,0,0,.259.035,1,1,0,0,0,.965-.742l.9-3.346A1.019,1.019,0,0,0,1259-119Z" transform="translate(-1216 130)" fill="#26c39c"/>
  <rect id="長方形_3407" data-name="長方形 3407" width="2" height="11" rx="0.375" transform="translate(11 28)" fill="#53b7f6"/>
  <rect id="長方形_3408" data-name="長方形 3408" width="4.5" height="2" rx="0.375" transform="translate(17 34.5) rotate(90)" fill="#53b7f6"/>
  <rect id="長方形_3409" data-name="長方形 3409" width="11" height="2" rx="0.375" transform="translate(25 28) rotate(90)" fill="#53b7f6"/>
  <rect id="長方形_3410" data-name="長方形 3410" width="8.5" height="2" rx="0.375" transform="translate(21 30.5) rotate(90)" fill="#53b7f6"/>
  <rect id="長方形_3411" data-name="長方形 3411" width="7" height="2" rx="0.375" transform="translate(9 32) rotate(90)" fill="#53b7f6"/>
  <rect id="長方形_3412" data-name="長方形 3412" width="2" height="16" rx="0.375" transform="translate(31 23)" fill="#53b7f6"/>
  <rect id="長方形_3413" data-name="長方形 3413" width="10.5" height="2" rx="0.375" transform="translate(37 28.5) rotate(90)" fill="#53b7f6"/>
  <rect id="長方形_3414" data-name="長方形 3414" width="13.5" height="2" rx="0.375" transform="translate(41 25.5) rotate(90)" fill="#53b7f6"/>
  <rect id="長方形_3415" data-name="長方形 3415" width="9" height="2" rx="0.375" transform="translate(29 30) rotate(90)" fill="#53b7f6"/>
  <path id="パス_457" data-name="パス 457" d="M1230-105a8.009,8.009,0,0,1-8-8,8.009,8.009,0,0,1,8-8,8.009,8.009,0,0,1,8,8A8.009,8.009,0,0,1,1230-105Zm0-14a6.006,6.006,0,0,0-6,6,6.006,6.006,0,0,0,6,6,6.006,6.006,0,0,0,6-6A6.006,6.006,0,0,0,1230-119Z" transform="translate(-1216 130)" fill="#1176c6"/>
  <path id="パス_458" data-name="パス 458" d="M1230-112a1,1,0,0,1-1-1v-7a1,1,0,0,1,1-1,1,1,0,0,1,1,1v7A1,1,0,0,1,1230-112Z" transform="translate(-1216 130)" fill="#1176c6"/>
  <path id="パス_459" data-name="パス 459" d="M1236.578-109.605a1,1,0,0,1-.342-.061l-6.578-2.394a1,1,0,0,1-.6-1.282,1,1,0,0,1,1.281-.6l6.578,2.394a1,1,0,0,1,.6,1.282A1,1,0,0,1,1236.578-109.605Z" transform="translate(-1216 130)" fill="#1176c6"/>
  <path id="パス_460" data-name="パス 460" d="M1225.5-106.638a.992.992,0,0,1-.642-.234,1,1,0,0,1-.123-1.409l4.5-5.362a1,1,0,0,1,1.409-.123,1,1,0,0,1,.123,1.409l-4.5,5.362A1,1,0,0,1,1225.5-106.638Z" transform="translate(-1216 130)" fill="#1176c6"/>
</svg>
