<svg id="BI_home" xmlns="http://www.w3.org/2000/svg" width="48" height="48" viewBox="0 0 48 48">
  <rect id="長方形_463" data-name="長方形 463" width="48" height="48" fill="none"/>
  <path id="パス_434" data-name="パス 434" d="M1040-103a4,4,0,0,1-4-4,4,4,0,0,1,4-4,4,4,0,0,1,4,4A4,4,0,0,1,1040-103Zm0-6a2,2,0,0,0-2,2,2,2,0,0,0,2,2,2,2,0,0,0,2-2A2,2,0,0,0,1040-109Z" transform="translate(-1016 130)" fill="#53b7f6"/>
  <path id="パス_435" data-name="パス 435" d="M1043-90a1,1,0,0,1-1-1v-7h-4v7a1,1,0,0,1-1,1,1,1,0,0,1-1-1v-8a1,1,0,0,1,1-1h6a1,1,0,0,1,1,1v8A1,1,0,0,1,1043-90Z" transform="translate(-1016 130)" fill="#26c39c"/>
  <path id="パス_436" data-name="パス 436" d="M1055.655-108.756l-15-13a1,1,0,0,0-1.31,0l-15,13a1,1,0,0,0-.1,1.411,1,1,0,0,0,1.411.1l2.345-2.032V-92h-2a1,1,0,0,0-1,1,1,1,0,0,0,1,1h28a1,1,0,0,0,1-1,1,1,0,0,0-1-1h-2v-17.276l2.345,2.032A1,1,0,0,0,1055-107a1,1,0,0,0,.756-.345A1,1,0,0,0,1055.655-108.756ZM1050-92h-20v-19.01l10-8.667,10,8.667Z" transform="translate(-1016 130)" fill="#1176c6"/>
</svg>
