<svg xmlns="http://www.w3.org/2000/svg" width="164.479" height="14" viewBox="0 0 164.479 14">
  <g id="グループ_173" data-name="グループ 173" transform="translate(-445.486 785.375)">
    <path id="パス_396" data-name="パス 396" d="M445.486-782.927h5.683v.565h-.414c-.734,0-1,.282-1,.527a2.251,2.251,0,0,0,.169.6l3.218,8.374h.038l2.992-7.828a2.951,2.951,0,0,0,.245-1.054c0-.47-.414-.621-1.11-.621h-.414v-.565h3.914v.565H458.6a1.078,1.078,0,0,0-1.054.828c-1.336,3.256-2.691,6.718-4.046,10.161l-.772,1.863h-.7l-4.78-11.779a1.4,1.4,0,0,0-1.505-1.073h-.263Z" transform="translate(0 -1.865)" fill="#fff"/>
    <path id="パス_397" data-name="パス 397" d="M508.285-782.927h5.739v.565h-.358c-1,0-1.3.4-1.3,1.11v9.785c0,.715.3,1.11,1.3,1.11h.358v.564h-5.739v-.564h.339c1.016,0,1.317-.4,1.317-1.129v-9.766c0-.7-.282-1.11-1.336-1.11h-.32Z" transform="translate(-47.84 -1.865)" fill="#fff"/>
    <path id="パス_398" data-name="パス 398" d="M552.269-783.83a22.64,22.64,0,0,0,.188,2.691l-.527.094a2.39,2.39,0,0,0-2.221-2.39,2.135,2.135,0,0,0-2.314,2.371c0,3.123,5.645,2.183,5.645,6.7,0,2.446-1.957,3.951-4.554,3.951a6.623,6.623,0,0,1-2.992-.847l-.32-2.86.527-.113c.282,1.9,1.355,2.992,2.917,2.992a2.141,2.141,0,0,0,2.314-2.145c0-3.331-5.532-2.3-5.532-6.831,0-2.409,1.693-3.9,4.14-3.9A25.643,25.643,0,0,1,552.269-783.83Z" transform="translate(-75.942 -0.963)" fill="#fff"/>
    <path id="パス_399" data-name="パス 399" d="M588.542-782.927h5.815v.565h-.433c-1.035,0-1.3.489-1.3,1.449v6.473c0,2.616,1.148,3.989,3.575,3.989,2.54,0,3.575-1.694,3.575-4.027v-6.436c0-.978-.245-1.449-1.223-1.449h-.508v-.565h4.46v.565H602c-.809,0-1.091.452-1.091,1.43v6.021c0,3.387-1.505,5.4-5.081,5.4-3.933,0-5.607-1.637-5.607-4.648v-6.774c0-.979-.263-1.43-1.261-1.43h-.414Z" transform="translate(-108.979 -1.865)" fill="#fff"/>
    <path id="パス_400" data-name="パス 400" d="M656.575-784.446l4.008,11.4c.282.79.565,1.167,1.411,1.167h.113v.564c-.941-.038-4.554-.038-5.419,0v-.564h.169c.828,0,1.2-.207,1.2-.546a3.414,3.414,0,0,0-.188-.79l-.922-2.747H652.68l-.621,2.013a7.218,7.218,0,0,0-.4,1.411c0,.414.414.659,1.449.659h.169v.564c-.753-.038-3.632-.038-4.309,0v-.564h.094a1.718,1.718,0,0,0,1.675-1.28l2.841-8.148a19.185,19.185,0,0,0,.847-2.766,9.828,9.828,0,0,0,1.712-.809c.038-.019.226-.094.282.019C656.462-784.784,656.519-784.577,656.575-784.446Zm-3.538,7.433h3.519l-1.731-5.325h-.038Z" transform="translate(-155.015 -0.347)" fill="#fff"/>
    <path id="パス_401" data-name="パス 401" d="M714.616-782.927h5.833v.565h-.677c-.941,0-1.073.414-1.073,1.11v9.6c0,.772.527,1.016,1.167,1.073a13.336,13.336,0,0,0,2.446-.038,2.733,2.733,0,0,0,2.39-2.371h.546c-.226,1.148-.471,2.145-.7,3.2h-9.935v-.564h.376c1.035,0,1.3-.527,1.3-1.28v-9.635c0-.677-.32-1.091-1.317-1.091h-.358Z" transform="translate(-205.021 -1.865)" fill="#fff"/>
    <path id="パス_402" data-name="パス 402" d="M814.03-783.171a22.677,22.677,0,0,0,.151,3.143l-.565.075c-.677-2.5-2.051-3.331-4.215-3.331-2.954,0-4.7,2.258-4.7,5.72,0,3.5,1.882,6.323,5.118,6.323a3.85,3.85,0,0,0,3.876-3.142l.527.075a20.854,20.854,0,0,0-.47,3.049,11.155,11.155,0,0,1-4.271.847c-4.573,0-7.414-2.578-7.414-7.037,0-4.084,3.255-6.661,7.282-6.661C811.565-784.112,812.45-783.378,814.03-783.171Z" transform="translate(-271.637 -0.963)" fill="#fff"/>
    <path id="パス_403" data-name="パス 403" d="M864.75-782.927c.546,0,1.769.075,2.917.075,1.11,0,2.032-.075,3.011-.075,3.237,0,4.5,1.223,4.5,3.312,0,1.505-.9,2.635-2.616,3.312l3.218,4.817a2.114,2.114,0,0,0,1.825,1.129v.564H873.99a53.044,53.044,0,0,1-3.914-6.1h-1.242v3.952c0,1.242.357,1.581,1.411,1.581h.471v.564H864.75v-.564h.283c.9,0,1.392-.4,1.392-1.035v-9.465c0-1.016-.282-1.505-1.28-1.505h-.4Zm4.084,6.36h.978c2.22,0,2.842-1.167,2.842-2.917a2.573,2.573,0,0,0-2.823-2.766c-.226,0-.7.038-1,.075Z" transform="translate(-319.392 -1.865)" fill="#fff"/>
    <path id="パス_404" data-name="パス 404" d="M925.258-782.927h9.5a27.743,27.743,0,0,0,.038,2.879l-.565.151c-.094-1.58-.621-2.2-2.371-2.2h-2.541v4.93h2.258c.846,0,1.355-.358,1.468-1.656h.564c-.113,1.882-.019,3.989,0,4.347l-.564.113c-.113-1-.094-1.863-1.468-1.863h-2.258v4.422c0,1.261,1.355,1.186,2.3,1.186,2.183,0,3.255-.113,3.82-2.3l.527.132c-.263,1.054-.471,1.995-.64,2.992H925.258v-.564h.32c1.129,0,1.336-.489,1.336-1.11v-9.766c0-.621-.169-1.129-1.336-1.129h-.32Z" transform="translate(-365.486 -1.865)" fill="#fff"/>
    <path id="パス_405" data-name="パス 405" d="M979.844-782.927h6.021c4.629,0,7.489,2.578,7.489,6.53a6.61,6.61,0,0,1-6.925,6.6c-.282-.019-5.946,0-6.586,0v-.564h.339c1.129,0,1.317-.508,1.317-1.129v-9.766c0-.583-.169-1.11-1.317-1.11h-.339Zm4.064,10.933c0,1.355.583,1.524,1.938,1.524,3.312,0,4.874-2.766,4.874-5.589,0-3.989-1.618-6.191-5.514-6.191-.433,0-.9.056-1.3.094Z" transform="translate(-407.069 -1.865)" fill="#fff"/>
    <path id="パス_406" data-name="パス 406" d="M1046.607-782.927h5.74v.565h-.358c-1,0-1.3.4-1.3,1.11v9.785c0,.715.3,1.11,1.3,1.11h.358v.564h-5.74v-.564h.339c1.017,0,1.318-.4,1.318-1.129v-9.766c0-.7-.282-1.11-1.336-1.11h-.32Z" transform="translate(-457.929 -1.865)" fill="#fff"/>
    <path id="パス_407" data-name="パス 407" d="M1094.091-785.3a14.507,14.507,0,0,0-.245,3.048l-.565.207c-.038-1.336-.564-1.806-1.373-1.806H1088.8v9.954c0,1.073.264,1.675,1.449,1.675h.471v.564h-6.247v-.564h.471c1.129,0,1.449-.282,1.449-1.675v-9.954h-3.161c-1.318,0-1.411.376-1.675,1.712h-.564a20.743,20.743,0,0,0,.339-3.2h.452c.113.32.207.546.978.546h9.917c.489,0,.922-.038.959-.583Z" transform="translate(-484.125)" fill="#fff"/>
  </g>
</svg>
