<?xml version="1.0" encoding="utf-8"?>
<!-- Generator: Adobe Illustrator 26.0.2, SVG Export Plug-In . SVG Version: 6.00 Build 0)  -->
<svg version="1.1" id="Button_tips" xmlns="http://www.w3.org/2000/svg" xmlns:xlink="http://www.w3.org/1999/xlink" x="0px"
	 y="0px" viewBox="0 0 24 24" style="enable-background:new 0 0 24 24;" xml:space="preserve">
<style type="text/css">
	.st0{fill:none;}
	.st1{fill:#0092E4;}
	.st2{enable-background:new    ;}
</style>
<g id="パス_450">
	<path class="st0" d="M12,0c6.6,0,12,5.4,12,12s-5.4,12-12,12S0,18.6,0,12S5.4,0,12,0z"/>
	<path class="st1" d="M12,2C6.5,2,2,6.5,2,12s4.5,10,10,10s10-4.5,10-10S17.5,2,12,2 M12,0c6.6,0,12,5.4,12,12s-5.4,12-12,12
		S0,18.6,0,12S5.4,0,12,0z"/>
</g>
<g class="st2">
	<path class="st1" d="M16.1,6.2c0.3,0,0.6,0.1,0.8,0.3c0.2,0.2,0.4,0.5,0.4,0.8v8.2c0,0.3-0.1,0.6-0.4,0.8c-0.2,0.2-0.5,0.4-0.8,0.4
		h-2.3L12,18.4l-1.8-1.8H7.9c-0.3,0-0.6-0.1-0.8-0.4c-0.2-0.2-0.4-0.5-0.4-0.8V7.3c0-0.3,0.1-0.6,0.4-0.8c0.2-0.2,0.5-0.3,0.8-0.3
		H16.1z M13.1,12.5l2.4-1.1l-2.4-1.1L12,7.9l-1.1,2.4l-2.4,1.1l2.4,1.1l1.1,2.4L13.1,12.5z"/>
</g>
</svg>
