<?xml version="1.0" encoding="utf-8"?>
<!-- Generator: Adobe Illustrator 26.0.2, SVG Export Plug-In . SVG Version: 6.00 Build 0)  -->
<svg version="1.1" id="Button_tips2" xmlns="http://www.w3.org/2000/svg" xmlns:xlink="http://www.w3.org/1999/xlink" x="0px"
	 y="0px" viewBox="0 0 64 24" style="enable-background:new 0 0 64 24;" xml:space="preserve">
<style type="text/css">
	.st0{enable-background:new    ;}
	.st1{fill:#0092E4;}
	.st2{fill:none;}
	.st3{fill:#3F90DE;}
</style>
<g class="st0">
	<path class="st1" d="M16.1,6.2c0.3,0,0.6,0.1,0.8,0.3c0.2,0.2,0.4,0.5,0.4,0.8v8.2c0,0.3-0.1,0.6-0.4,0.8c-0.2,0.2-0.5,0.4-0.8,0.4
		h-2.3L12,18.4l-1.8-1.8H7.9c-0.3,0-0.6-0.1-0.8-0.4c-0.2-0.2-0.4-0.5-0.4-0.8V7.3c0-0.3,0.1-0.6,0.4-0.8c0.2-0.2,0.5-0.3,0.8-0.3
		H16.1z M13.1,12.5l2.4-1.1l-2.4-1.1L12,7.9l-1.1,2.4l-2.4,1.1l2.4,1.1l1.1,2.4L13.1,12.5z"/>
</g>
<g id="パス_1433">
	<path class="st2" d="M12,0h40c6.6,0,12,5.4,12,12s-5.4,12-12,12H12C5.4,24,0,18.6,0,12S5.4,0,12,0z"/>
	<path class="st3" d="M12,2C6.5,2,2,6.5,2,12s4.5,10,10,10h40c5.5,0,10-4.5,10-10S57.5,2,52,2H12 M12,0h40c6.6,0,12,5.4,12,12
		s-5.4,12-12,12H12C5.4,24,0,18.6,0,12S5.4,0,12,0z"/>
</g>
<g class="st0">
	<path class="st1" d="M24.1,7.1H27c2,0,3.5,0.7,3.5,2.8c0,2-1.5,2.9-3.4,2.9h-1.2V16h-1.8V7.1z M26.9,11.4c1.2,0,1.8-0.5,1.8-1.5
		c0-1-0.6-1.4-1.9-1.4h-1v2.9H26.9z"/>
	<path class="st1" d="M31.2,12.7c0-2.2,1.5-3.5,3.2-3.5c1.7,0,3.2,1.3,3.2,3.5c0,2.2-1.5,3.5-3.2,3.5C32.8,16.2,31.2,14.9,31.2,12.7
		z M35.9,12.7c0-1.3-0.5-2.1-1.4-2.1S33,11.4,33,12.7c0,1.3,0.5,2.1,1.4,2.1S35.9,13.9,35.9,12.7z"/>
	<path class="st1" d="M39,7.2c0-0.6,0.4-1,1.1-1c0.6,0,1,0.4,1,1c0,0.6-0.4,1-1,1C39.4,8.2,39,7.8,39,7.2z M39.2,9.3h1.8V16h-1.8
		V9.3z"/>
	<path class="st1" d="M42.8,9.3h1.4l0.1,0.9h0c0.6-0.6,1.3-1.1,2.2-1.1c1.5,0,2.1,1,2.1,2.7V16h-1.8v-4c0-1-0.3-1.4-0.9-1.4
		c-0.6,0-0.9,0.3-1.4,0.8V16h-1.8V9.3z"/>
	<path class="st1" d="M50.8,13.6v-3h-0.9V9.4l1-0.1L51,7.5h1.5v1.8h1.7v1.4h-1.7v3c0,0.8,0.3,1.1,0.9,1.1c0.2,0,0.5-0.1,0.7-0.1
		l0.3,1.3C54,16,53.5,16.2,53,16.2C51.4,16.2,50.8,15.2,50.8,13.6z"/>
</g>
</svg>
